<?xml version="1.0" encoding="UTF-8"?>
<svg id="Layer_1" role='presentation' xmlns="http://www.w3.org/2000/svg" viewBox="0 0 255 75" width='255' height='75'>
  <defs>
    <style>
      .cls-1 {
        fill: #ce2128;
      }
    </style>
  </defs>
  <path class="cls-1" d="M115.51,46.64c-1.26,4.09-4.47,6.41-8.85,6.62-3.72.17-7.31-.44-10.82-1.66-.6-.21-.86-.55-.86-1.22.02-3.17.01-6.33.01-9.5,0-1.06,0-2.11,0-3.17,0-2.1,0-4.2,0-6.3s0-4.2-.01-6.3c0-.65.22-1,.84-1.23,3.61-1.31,7.31-2.05,11.17-1.74,4.76.37,8.1,3.14,9.13,7.84,1.22,5.58,1.09,11.18-.6,16.66M123.6,26.59c-2.24-5.77-6.3-9.37-12.5-10.31-4.12-.62-8.18-.13-12.16,1-1.3.37-2.58.83-3.96,1.27V0h-8.38v.64c0,18.08,0,36.17-.01,54.25,0,.74.29,1.12.96,1.36,2.81,1,5.68,1.75,8.61,2.27,4.9.86,9.82,1.23,14.76.32,6.62-1.21,11.05-4.91,12.96-11.45,1.16-3.97,1.44-8.05,1.33-12.16-.09-2.96-.52-5.87-1.6-8.65"/>
  <path class="cls-1" d="M245.36,46.59c-1.26,4.1-4.41,6.41-8.75,6.65-3.81.22-7.48-.43-11.07-1.69-.52-.18-.72-.46-.71-1.02.02-4.24.01-8.49.01-12.73h-.03c0-4.22.01-8.44-.01-12.66,0-.67.23-1.04.87-1.28,3.57-1.29,7.23-2.04,11.04-1.73,4.91.39,8.17,3.06,9.24,7.86,1.24,5.56,1.07,11.13-.6,16.59M239.41,16.1c-4.18-.33-8.26.32-12.23,1.66-.76.26-1.51.52-2.37.82V.01h-8.36v.89c0,15.39,0,30.78,0,46.17,0,2.63,0,5.27-.02,7.9,0,.6.19,1,.79,1.22,4.91,1.83,10.02,2.76,15.23,3.13,2.77.2,5.56.02,8.31-.48,6.1-1.12,10.46-4.34,12.58-10.3,1.27-3.56,1.65-7.27,1.73-11.01.08-3.63-.24-7.21-1.52-10.64-2.44-6.55-7.13-10.23-14.14-10.78"/>
  <path class="cls-1" d="M72.19,16.97c-.63,0-.77.19-.76.79.02,8.79.01,17.58.02,26.36,0,2.25.02,4.5.04,6.75,0,.77-.17,1.02-.92,1.22-3.79,1.03-7.63,1.48-11.54,1.02-3.17-.37-5.34-2.02-6.39-5.07-.72-2.09-.89-4.27-.89-6.46,0-7.94,0-15.88,0-23.82v-.74h-8.39v.8c0,8.57,0,17.15,0,25.73,0,1.36.02,2.72.13,4.07.26,3.18,1.46,5.91,3.98,7.97,1.72,1.41,3.71,2.3,5.85,2.86,3.62.94,7.29,1.05,11,.78,4.91-.36,9.73-1.22,14.48-2.48.94-.25,1.03-.37,1.03-1.37V16.99c-2.62,0-5.12.02-7.63-.02"/>
  <path class="cls-1" d="M209.63,16.99h-7.46q-.88,0-.88.9c.02,10.87.03,21.73.05,32.6,0,1.21-.18,1.45-1.32,1.73-3.61.89-7.27,1.33-10.99.92-3.22-.35-5.46-1.95-6.54-5.05-.7-2.01-.9-4.09-.9-6.2,0-8.04,0-16.09,0-24.14v-.73h-8.39v.84c0,8.66,0,17.32,0,25.98,0,1.29.02,2.59.13,3.88.22,2.58,1.07,4.92,2.87,6.85,1.77,1.91,4.01,3.05,6.47,3.76,3.76,1.08,7.61,1.2,11.49.91,4.97-.37,9.85-1.23,14.66-2.53.62-.17.85-.46.85-1.11-.02-12.61-.01-25.22-.01-37.83,0-.24-.03-.49-.04-.78"/>
  <path class="cls-1" d="M94.99,31.41c0,2.1,0,4.2,0,6.3,0,1.05,0,2.11,0,3.17,0-1.06,0-2.11,0-3.17,0-2.1,0-4.2,0-6.3"/>
  <path class="cls-1" d="M94.99,40.88c0,3.17,0,6.33-.01,9.5.02-3.17.02-6.33.01-9.5"/>
  <path class="cls-1" d="M137.4,57.43c.63,0,.76-.18.76-.76-.02-8.48-.01-16.96-.02-25.44,0-2.17-.02-4.34-.04-6.51,0-.75.17-.98.91-1.18,3.78-.99,7.61-1.43,11.51-.99,3.16.36,5.32,1.95,6.37,4.89.72,2.02.89,4.12.89,6.23,0,7.66,0,15.32,0,22.98v.71h8.37v-.77c0-8.28,0-16.55,0-24.83,0-1.31-.02-2.62-.13-3.93-.26-3.07-1.46-5.71-3.96-7.69-1.72-1.36-3.7-2.22-5.83-2.76-3.61-.91-7.27-1.02-10.97-.75-4.89.35-9.7,1.18-14.44,2.39-.94.24-1.03.36-1.03,1.32,0,12.11,0,24.21,0,36.32v.74c2.61,0,5.11-.02,7.61.01"/>
  <path class="cls-1" d="M26.83,50.48s-6.45,4.44-18.12-.19l.02-3.59v-22.67c0-.45.07-.56.65-.82,0,0,8.48-3.35,15.56-.63,0,0,5.24,2.06,5.92,11.02,0,0,1.07,13.44-4.03,16.88M38.86,30.65c-2.04-12.76-12.27-14.48-12.27-14.48-13.68-2.72-25.53,2.29-25.53,2.29C.11,18.9.01,19.09,0,19.83,0,32.3,0,44.77,0,57.23v17.61h8.74v-18.54c16.3,5.78,23.96-.91,23.96-.91,9.51-8.22,6.16-24.75,6.16-24.75"/>
</svg>